<svg width="1024" height="753" viewBox="0 0 1024 753" fill="none" xmlns="http://www.w3.org/2000/svg">
<g clip-path="url(#clip0_122_130)">
<rect width="1024" height="753" fill="#121214"/>
<g opacity="0.2" filter="url(#filter0_f_122_130)">
<ellipse cx="329.5" cy="12" rx="670.5" ry="350" fill="#338AF3"/>
</g>
<g opacity="0.6">
<path d="M736.93 -52C738.356 -52 739.436 -51.395 740.17 -50.1851C740.916 -48.9885 741.29 -47.2468 741.29 -44.9599C741.29 -42.673 740.916 -40.9246 740.17 -39.7147C739.436 -38.5048 738.356 -37.8998 736.93 -37.8998C735.517 -37.8998 734.437 -38.5048 733.69 -39.7147C732.943 -40.9246 732.57 -42.673 732.57 -44.9599C732.57 -47.2335 732.943 -48.9752 733.69 -50.1851C734.437 -51.395 735.517 -52 736.93 -52ZM733.99 -44.9599C733.99 -43.3378 734.137 -42.068 734.43 -41.1506L738.87 -49.9857C738.403 -50.6106 737.756 -50.923 736.93 -50.923C736.01 -50.923 735.29 -50.4311 734.77 -49.4472C734.25 -48.4766 733.99 -46.9808 733.99 -44.9599ZM736.93 -38.9967C737.863 -38.9967 738.59 -39.482 739.11 -40.4526C739.63 -41.4365 739.89 -42.9389 739.89 -44.9599C739.89 -46.675 739.723 -48.0046 739.39 -48.9486L734.95 -40.0338C735.43 -39.3424 736.09 -38.9967 736.93 -38.9967Z" fill="url(#paint0_linear_122_130)"/>
<path d="M738.13 -16.3635H741.07V-15.3064H733.45V-16.3635H736.85V-27.5718L733.61 -25.6373L733.05 -26.5347L737.05 -29.0078H738.13V-16.3635Z" fill="url(#paint1_linear_122_130)"/>
<path d="M736.93 -6.41439C738.356 -6.41439 739.436 -5.80943 740.17 -4.59952C740.916 -3.40289 741.29 -1.66114 741.29 0.625733C741.29 2.91261 740.916 4.66101 740.17 5.87093C739.436 7.08084 738.356 7.6858 736.93 7.6858C735.517 7.6858 734.437 7.08084 733.69 5.87093C732.943 4.66101 732.57 2.91261 732.57 0.625733C732.57 -1.64785 732.943 -3.3896 733.69 -4.59952C734.437 -5.80943 735.517 -6.41439 736.93 -6.41439ZM733.99 0.625733C733.99 2.24782 734.137 3.51757 734.43 4.43498L738.87 -4.40008C738.403 -5.02498 737.756 -5.33744 736.93 -5.33744C736.01 -5.33744 735.29 -4.84549 734.77 -3.8616C734.25 -2.89101 733.99 -1.39523 733.99 0.625733ZM736.93 6.5889C737.863 6.5889 738.59 6.1036 739.11 5.13301C739.63 4.14912 739.89 2.6467 739.89 0.625733C739.89 -1.08943 739.723 -2.41901 739.39 -3.36301L734.95 5.55183C735.43 6.24321 736.09 6.5889 736.93 6.5889Z" fill="url(#paint2_linear_122_130)"/>
<path d="M738.13 29.2221H741.07V30.2792H733.45V29.2221H736.85V18.0138L733.61 19.9483L733.05 19.0509L737.05 16.5778H738.13V29.2221Z" fill="url(#paint3_linear_122_130)"/>
<path d="M738.13 52.015H741.07V53.072H733.45V52.015H736.85V40.8066L733.61 42.7411L733.05 41.8437L737.05 39.3706H738.13V52.015Z" fill="url(#paint4_linear_122_130)"/>
<path d="M736.93 61.964C738.356 61.964 739.436 62.569 740.17 63.7789C740.916 64.9755 741.29 66.7173 741.29 69.0041C741.29 71.291 740.916 73.0394 740.17 74.2493C739.436 75.4593 738.356 76.0642 736.93 76.0642C735.517 76.0642 734.437 75.4593 733.69 74.2493C732.943 73.0394 732.57 71.291 732.57 69.0041C732.57 66.7306 732.943 64.9888 733.69 63.7789C734.437 62.569 735.517 61.964 736.93 61.964ZM733.99 69.0041C733.99 70.6262 734.137 71.896 734.43 72.8134L738.87 63.9783C738.403 63.3534 737.756 63.041 736.93 63.041C736.01 63.041 735.29 63.5329 734.77 64.5168C734.25 65.4874 733.99 66.9832 733.99 69.0041ZM736.93 74.9673C737.863 74.9673 738.59 74.482 739.11 73.5114C739.63 72.5275 739.89 71.0251 739.89 69.0041C739.89 67.289 739.723 65.9594 739.39 65.0154L734.95 73.9302C735.43 74.6216 736.09 74.9673 736.93 74.9673Z" fill="url(#paint5_linear_122_130)"/>
<path d="M738.13 97.6006H741.07V98.6576H733.45V97.6006H736.85V86.3922L733.61 88.3267L733.05 87.4293L737.05 84.9562H738.13V97.6006Z" fill="url(#paint6_linear_122_130)"/>
<path d="M736.93 107.55C738.356 107.55 739.436 108.155 740.17 109.365C740.916 110.561 741.29 112.303 741.29 114.59C741.29 116.877 740.916 118.625 740.17 119.835C739.436 121.045 738.356 121.65 736.93 121.65C735.517 121.65 734.437 121.045 733.69 119.835C732.943 118.625 732.57 116.877 732.57 114.59C732.57 112.316 732.943 110.574 733.69 109.365C734.437 108.155 735.517 107.55 736.93 107.55ZM733.99 114.59C733.99 116.212 734.137 117.482 734.43 118.399L738.87 109.564C738.403 108.939 737.756 108.627 736.93 108.627C736.01 108.627 735.29 109.119 734.77 110.102C734.25 111.073 733.99 112.569 733.99 114.59ZM736.93 120.553C737.863 120.553 738.59 120.068 739.11 119.097C739.63 118.113 739.89 116.611 739.89 114.59C739.89 112.875 739.723 111.545 739.39 110.601L734.95 119.516C735.43 120.207 736.09 120.553 736.93 120.553Z" fill="url(#paint7_linear_122_130)"/>
<path d="M736.93 130.342C738.356 130.342 739.436 130.947 740.17 132.157C740.916 133.354 741.29 135.096 741.29 137.383C741.29 139.669 740.916 141.418 740.17 142.628C739.436 143.838 738.356 144.443 736.93 144.443C735.517 144.443 734.437 143.838 733.69 142.628C732.943 141.418 732.57 139.669 732.57 137.383C732.57 135.109 732.943 133.367 733.69 132.157C734.437 130.947 735.517 130.342 736.93 130.342ZM733.99 137.383C733.99 139.005 734.137 140.274 734.43 141.192L738.87 132.357C738.403 131.732 737.756 131.419 736.93 131.419C736.01 131.419 735.29 131.911 734.77 132.895C734.25 133.866 733.99 135.362 733.99 137.383ZM736.93 143.346C737.863 143.346 738.59 142.86 739.11 141.89C739.63 140.906 739.89 139.404 739.89 137.383C739.89 135.667 739.723 134.338 739.39 133.394L734.95 142.309C735.43 143 736.09 143.346 736.93 143.346Z" fill="url(#paint8_linear_122_130)"/>
<path d="M738.13 165.979H741.07V167.036H733.45V165.979H736.85V154.771L733.61 156.705L733.05 155.808L737.05 153.335H738.13V165.979Z" fill="url(#paint9_linear_122_130)"/>
<path d="M736.93 175.928C738.356 175.928 739.436 176.533 740.17 177.743C740.916 178.94 741.29 180.681 741.29 182.968C741.29 185.255 740.916 187.003 740.17 188.213C739.436 189.423 738.356 190.028 736.93 190.028C735.517 190.028 734.437 189.423 733.69 188.213C732.943 187.003 732.57 185.255 732.57 182.968C732.57 180.695 732.943 178.953 733.69 177.743C734.437 176.533 735.517 175.928 736.93 175.928ZM733.99 182.968C733.99 184.59 734.137 185.86 734.43 186.777L738.87 177.942C738.403 177.317 737.756 177.005 736.93 177.005C736.01 177.005 735.29 177.497 734.77 178.481C734.25 179.451 733.99 180.947 733.99 182.968ZM736.93 188.931C737.863 188.931 738.59 188.446 739.11 187.475C739.63 186.492 739.89 184.989 739.89 182.968C739.89 181.253 739.723 179.923 739.39 178.979L734.95 187.894C735.43 188.586 736.09 188.931 736.93 188.931Z" fill="url(#paint10_linear_122_130)"/>
<path d="M738.13 211.565H741.07V212.622H733.45V211.565H736.85V200.356L733.61 202.291L733.05 201.393L737.05 198.92H738.13V211.565Z" fill="url(#paint11_linear_122_130)"/>
<path d="M738.13 234.357H741.07V235.414H733.45V234.357H736.85V223.149L733.61 225.084L733.05 224.186L737.05 221.713H738.13V234.357Z" fill="url(#paint12_linear_122_130)"/>
<path d="M774.07 -6.41439C775.497 -6.41439 776.577 -5.80943 777.31 -4.59952C778.057 -3.40289 778.43 -1.66114 778.43 0.625733C778.43 2.91261 778.057 4.66101 777.31 5.87093C776.577 7.08084 775.497 7.6858 774.07 7.6858C772.657 7.6858 771.577 7.08084 770.83 5.87093C770.084 4.66101 769.71 2.91261 769.71 0.625733C769.71 -1.64785 770.084 -3.3896 770.83 -4.59952C771.577 -5.80943 772.657 -6.41439 774.07 -6.41439ZM771.13 0.625733C771.13 2.24782 771.277 3.51757 771.57 4.43498L776.01 -4.40008C775.543 -5.02498 774.897 -5.33744 774.07 -5.33744C773.15 -5.33744 772.43 -4.84549 771.91 -3.8616C771.39 -2.89101 771.13 -1.39523 771.13 0.625733ZM774.07 6.5889C775.003 6.5889 775.73 6.1036 776.25 5.13301C776.77 4.14912 777.03 2.6467 777.03 0.625733C777.03 -1.08943 776.863 -2.41901 776.53 -3.36301L772.09 5.55183C772.57 6.24321 773.23 6.5889 774.07 6.5889Z" fill="url(#paint13_linear_122_130)"/>
<path d="M775.27 29.2221H778.21V30.2792H770.59V29.2221H773.99V18.0138L770.75 19.9483L770.19 19.0509L774.19 16.5778H775.27V29.2221Z" fill="url(#paint14_linear_122_130)"/>
<path d="M774.07 39.1712C775.497 39.1712 776.577 39.7762 777.31 40.9861C778.057 42.1827 778.43 43.9245 778.43 46.2113C778.43 48.4982 778.057 50.2466 777.31 51.4565C776.577 52.6664 775.497 53.2714 774.07 53.2714C772.657 53.2714 771.577 52.6664 770.83 51.4565C770.084 50.2466 769.71 48.4982 769.71 46.2113C769.71 43.9378 770.084 42.196 770.83 40.9861C771.577 39.7762 772.657 39.1712 774.07 39.1712ZM771.13 46.2113C771.13 47.8334 771.277 49.1032 771.57 50.0206L776.01 41.1855C775.543 40.5606 774.897 40.2482 774.07 40.2482C773.15 40.2482 772.43 40.7401 771.91 41.724C771.39 42.6946 771.13 44.1904 771.13 46.2113ZM774.07 52.1745C775.003 52.1745 775.73 51.6892 776.25 50.7186C776.77 49.7347 777.03 48.2323 777.03 46.2113C777.03 44.4962 776.863 43.1666 776.53 42.2226L772.09 51.1374C772.57 51.8288 773.23 52.1745 774.07 52.1745Z" fill="url(#paint15_linear_122_130)"/>
<path d="M774.07 61.964C775.497 61.964 776.577 62.569 777.31 63.7789C778.057 64.9755 778.43 66.7173 778.43 69.0041C778.43 71.291 778.057 73.0394 777.31 74.2493C776.577 75.4593 775.497 76.0642 774.07 76.0642C772.657 76.0642 771.577 75.4593 770.83 74.2493C770.084 73.0394 769.71 71.291 769.71 69.0041C769.71 66.7306 770.084 64.9888 770.83 63.7789C771.577 62.569 772.657 61.964 774.07 61.964ZM771.13 69.0041C771.13 70.6262 771.277 71.896 771.57 72.8134L776.01 63.9783C775.543 63.3534 774.897 63.041 774.07 63.041C773.15 63.041 772.43 63.5329 771.91 64.5168C771.39 65.4874 771.13 66.9832 771.13 69.0041ZM774.07 74.9673C775.003 74.9673 775.73 74.482 776.25 73.5114C776.77 72.5275 777.03 71.0251 777.03 69.0041C777.03 67.289 776.863 65.9594 776.53 65.0154L772.09 73.9302C772.57 74.6216 773.23 74.9673 774.07 74.9673Z" fill="url(#paint16_linear_122_130)"/>
<path d="M775.27 97.6006H778.21V98.6576H770.59V97.6006H773.99V86.3922L770.75 88.3267L770.19 87.4293L774.19 84.9562H775.27V97.6006Z" fill="url(#paint17_linear_122_130)"/>
<path d="M774.07 107.55C775.497 107.55 776.577 108.155 777.31 109.365C778.057 110.561 778.43 112.303 778.43 114.59C778.43 116.877 778.057 118.625 777.31 119.835C776.577 121.045 775.497 121.65 774.07 121.65C772.657 121.65 771.577 121.045 770.83 119.835C770.084 118.625 769.71 116.877 769.71 114.59C769.71 112.316 770.084 110.574 770.83 109.365C771.577 108.155 772.657 107.55 774.07 107.55ZM771.13 114.59C771.13 116.212 771.277 117.482 771.57 118.399L776.01 109.564C775.543 108.939 774.897 108.627 774.07 108.627C773.15 108.627 772.43 109.119 771.91 110.102C771.39 111.073 771.13 112.569 771.13 114.59ZM774.07 120.553C775.003 120.553 775.73 120.068 776.25 119.097C776.77 118.113 777.03 116.611 777.03 114.59C777.03 112.875 776.863 111.545 776.53 110.601L772.09 119.516C772.57 120.207 773.23 120.553 774.07 120.553Z" fill="url(#paint18_linear_122_130)"/>
<path d="M775.27 143.186H778.21V144.243H770.59V143.186H773.99V131.978L770.75 133.912L770.19 133.015L774.19 130.542H775.27V143.186Z" fill="url(#paint19_linear_122_130)"/>
<path d="M774.07 153.135C775.497 153.135 776.577 153.74 777.31 154.95C778.057 156.147 778.43 157.888 778.43 160.175C778.43 162.462 778.057 164.211 777.31 165.421C776.577 166.63 775.497 167.235 774.07 167.235C772.657 167.235 771.577 166.63 770.83 165.421C770.084 164.211 769.71 162.462 769.71 160.175C769.71 157.902 770.084 156.16 770.83 154.95C771.577 153.74 772.657 153.135 774.07 153.135ZM771.13 160.175C771.13 161.797 771.277 163.067 771.57 163.985L776.01 155.15C775.543 154.525 774.897 154.212 774.07 154.212C773.15 154.212 772.43 154.704 771.91 155.688C771.39 156.659 771.13 158.154 771.13 160.175ZM774.07 166.139C775.003 166.139 775.73 165.653 776.25 164.683C776.77 163.699 777.03 162.196 777.03 160.175C777.03 158.46 776.863 157.131 776.53 156.187L772.09 165.101C772.57 165.793 773.23 166.139 774.07 166.139Z" fill="url(#paint20_linear_122_130)"/>
<path d="M774.07 175.928C775.497 175.928 776.577 176.533 777.31 177.743C778.057 178.94 778.43 180.681 778.43 182.968C778.43 185.255 778.057 187.003 777.31 188.213C776.577 189.423 775.497 190.028 774.07 190.028C772.657 190.028 771.577 189.423 770.83 188.213C770.084 187.003 769.71 185.255 769.71 182.968C769.71 180.695 770.084 178.953 770.83 177.743C771.577 176.533 772.657 175.928 774.07 175.928ZM771.13 182.968C771.13 184.59 771.277 185.86 771.57 186.777L776.01 177.942C775.543 177.317 774.897 177.005 774.07 177.005C773.15 177.005 772.43 177.497 771.91 178.481C771.39 179.451 771.13 180.947 771.13 182.968ZM774.07 188.931C775.003 188.931 775.73 188.446 776.25 187.475C776.77 186.492 777.03 184.989 777.03 182.968C777.03 181.253 776.863 179.923 776.53 178.979L772.09 187.894C772.57 188.586 773.23 188.931 774.07 188.931Z" fill="url(#paint21_linear_122_130)"/>
<path d="M775.27 211.565H778.21V212.622H770.59V211.565H773.99V200.356L770.75 202.291L770.19 201.393L774.19 198.92H775.27V211.565Z" fill="url(#paint22_linear_122_130)"/>
<path d="M774.07 221.514C775.497 221.514 776.577 222.119 777.31 223.329C778.057 224.525 778.43 226.267 778.43 228.554C778.43 230.841 778.057 232.589 777.31 233.799C776.577 235.009 775.497 235.614 774.07 235.614C772.657 235.614 771.577 235.009 770.83 233.799C770.084 232.589 769.71 230.841 769.71 228.554C769.71 226.28 770.084 224.538 770.83 223.329C771.577 222.119 772.657 221.514 774.07 221.514ZM771.13 228.554C771.13 230.176 771.277 231.446 771.57 232.363L776.01 223.528C775.543 222.903 774.897 222.591 774.07 222.591C773.15 222.591 772.43 223.083 771.91 224.066C771.39 225.037 771.13 226.533 771.13 228.554ZM774.07 234.517C775.003 234.517 775.73 234.032 776.25 233.061C776.77 232.077 777.03 230.575 777.03 228.554C777.03 226.839 776.863 225.509 776.53 224.565L772.09 233.48C772.57 234.171 773.23 234.517 774.07 234.517Z" fill="url(#paint23_linear_122_130)"/>
<path d="M775.27 257.15H778.21V258.207H770.59V257.15H773.99V245.942L770.75 247.876L770.19 246.979L774.19 244.506H775.27V257.15Z" fill="url(#paint24_linear_122_130)"/>
<path d="M775.27 279.943H778.21V281H770.59V279.943H773.99V268.735L770.75 270.669L770.19 269.772L774.19 267.299H775.27V279.943Z" fill="url(#paint25_linear_122_130)"/>
<path d="M718.36 16.3784C719.786 16.3784 720.866 16.9834 721.599 18.1933C722.346 19.3899 722.719 21.1317 722.719 23.4185C722.719 25.7054 722.346 27.4538 721.599 28.6637C720.866 29.8736 719.786 30.4786 718.36 30.4786C716.946 30.4786 715.867 29.8736 715.12 28.6637C714.373 27.4538 714 25.7054 714 23.4185C714 21.145 714.373 19.4032 715.12 18.1933C715.867 16.9834 716.946 16.3784 718.36 16.3784ZM715.42 23.4185C715.42 25.0406 715.567 26.3104 715.86 27.2278L720.3 18.3927C719.833 17.7678 719.186 17.4554 718.36 17.4554C717.44 17.4554 716.72 17.9473 716.2 18.9312C715.68 19.9018 715.42 21.3976 715.42 23.4185ZM718.36 29.3817C719.293 29.3817 720.02 28.8964 720.54 27.9258C721.06 26.9419 721.319 25.4395 721.319 23.4185C721.319 21.7034 721.153 20.3738 720.82 19.4298L716.38 28.3446C716.86 29.036 717.52 29.3817 718.36 29.3817Z" fill="url(#paint26_linear_122_130)"/>
<path d="M718.36 39.1712C719.786 39.1712 720.866 39.7762 721.599 40.9861C722.346 42.1827 722.719 43.9245 722.719 46.2113C722.719 48.4982 722.346 50.2466 721.599 51.4565C720.866 52.6664 719.786 53.2714 718.36 53.2714C716.946 53.2714 715.867 52.6664 715.12 51.4565C714.373 50.2466 714 48.4982 714 46.2113C714 43.9378 714.373 42.196 715.12 40.9861C715.867 39.7762 716.946 39.1712 718.36 39.1712ZM715.42 46.2113C715.42 47.8334 715.567 49.1032 715.86 50.0206L720.3 41.1855C719.833 40.5606 719.186 40.2482 718.36 40.2482C717.44 40.2482 716.72 40.7401 716.2 41.724C715.68 42.6946 715.42 44.1904 715.42 46.2113ZM718.36 52.1745C719.293 52.1745 720.02 51.6892 720.54 50.7186C721.06 49.7347 721.319 48.2323 721.319 46.2113C721.319 44.4962 721.153 43.1666 720.82 42.2226L716.38 51.1374C716.86 51.8288 717.52 52.1745 718.36 52.1745Z" fill="url(#paint27_linear_122_130)"/>
<path d="M719.56 74.8078H722.499V75.8648H714.88V74.8078H718.28V63.5994L715.04 65.5339L714.48 64.6365L718.48 62.1635H719.56V74.8078Z" fill="url(#paint28_linear_122_130)"/>
<path d="M718.36 84.7568C719.786 84.7568 720.866 85.3618 721.599 86.5717C722.346 87.7683 722.719 89.5101 722.719 91.7969C722.719 94.0838 722.346 95.8322 721.599 97.0421C720.866 98.2521 719.786 98.857 718.36 98.857C716.946 98.857 715.867 98.2521 715.12 97.0421C714.373 95.8322 714 94.0838 714 91.7969C714 89.5234 714.373 87.7816 715.12 86.5717C715.867 85.3618 716.946 84.7568 718.36 84.7568ZM715.42 91.7969C715.42 93.419 715.567 94.6888 715.86 95.6062L720.3 86.7711C719.833 86.1462 719.186 85.8338 718.36 85.8338C717.44 85.8338 716.72 86.3257 716.2 87.3096C715.68 88.2802 715.42 89.776 715.42 91.7969ZM718.36 97.7601C719.293 97.7601 720.02 97.2748 720.54 96.3042C721.06 95.3203 721.319 93.8179 721.319 91.7969C721.319 90.0818 721.153 88.7522 720.82 87.8082L716.38 96.723C716.86 97.4144 717.52 97.7601 718.36 97.7601Z" fill="url(#paint29_linear_122_130)"/>
<path d="M719.56 120.393H722.499V121.45H714.88V120.393H718.28V109.185L715.04 111.12L714.48 110.222L718.48 107.749H719.56V120.393Z" fill="url(#paint30_linear_122_130)"/>
<path d="M719.56 143.186H722.499V144.243H714.88V143.186H718.28V131.978L715.04 133.912L714.48 133.015L718.48 130.542H719.56V143.186Z" fill="url(#paint31_linear_122_130)"/>
<path d="M756.7 -16.3635H759.64V-15.3064H752.02V-16.3635H755.42V-27.5718L752.18 -25.6373L751.62 -26.5347L755.62 -29.0078H756.7V-16.3635Z" fill="url(#paint32_linear_122_130)"/>
<path d="M755.5 -6.41439C756.927 -6.41439 758.006 -5.80943 758.74 -4.59952C759.486 -3.40289 759.86 -1.66114 759.86 0.625733C759.86 2.91261 759.486 4.66101 758.74 5.87093C758.006 7.08084 756.927 7.6858 755.5 7.6858C754.087 7.6858 753.007 7.08084 752.26 5.87093C751.514 4.66101 751.14 2.91261 751.14 0.625733C751.14 -1.64785 751.514 -3.3896 752.26 -4.59952C753.007 -5.80943 754.087 -6.41439 755.5 -6.41439ZM752.56 0.625733C752.56 2.24782 752.707 3.51757 753 4.43498L757.44 -4.40008C756.973 -5.02498 756.327 -5.33744 755.5 -5.33744C754.58 -5.33744 753.86 -4.84549 753.34 -3.8616C752.82 -2.89101 752.56 -1.39523 752.56 0.625733ZM755.5 6.5889C756.433 6.5889 757.16 6.1036 757.68 5.13301C758.2 4.14912 758.46 2.6467 758.46 0.625733C758.46 -1.08943 758.293 -2.41901 757.96 -3.36301L753.52 5.55183C754 6.24321 754.66 6.5889 755.5 6.5889Z" fill="url(#paint33_linear_122_130)"/>
<path d="M756.7 29.2221H759.64V30.2792H752.02V29.2221H755.42V18.0138L752.18 19.9483L751.62 19.0509L755.62 16.5778H756.7V29.2221Z" fill="url(#paint34_linear_122_130)"/>
<path d="M756.7 52.015H759.64V53.072H752.02V52.015H755.42V40.8066L752.18 42.7411L751.62 41.8437L755.62 39.3706H756.7V52.015Z" fill="url(#paint35_linear_122_130)"/>
<path d="M755.5 61.964C756.927 61.964 758.006 62.569 758.74 63.7789C759.486 64.9755 759.86 66.7173 759.86 69.0041C759.86 71.291 759.486 73.0394 758.74 74.2493C758.006 75.4593 756.927 76.0642 755.5 76.0642C754.087 76.0642 753.007 75.4593 752.26 74.2493C751.514 73.0394 751.14 71.291 751.14 69.0041C751.14 66.7306 751.514 64.9888 752.26 63.7789C753.007 62.569 754.087 61.964 755.5 61.964ZM752.56 69.0041C752.56 70.6262 752.707 71.896 753 72.8134L757.44 63.9783C756.973 63.3534 756.327 63.041 755.5 63.041C754.58 63.041 753.86 63.5329 753.34 64.5168C752.82 65.4874 752.56 66.9832 752.56 69.0041ZM755.5 74.9673C756.433 74.9673 757.16 74.482 757.68 73.5114C758.2 72.5275 758.46 71.0251 758.46 69.0041C758.46 67.289 758.293 65.9594 757.96 65.0154L753.52 73.9302C754 74.6216 754.66 74.9673 755.5 74.9673Z" fill="url(#paint36_linear_122_130)"/>
<path d="M756.7 97.6006H759.64V98.6576H752.02V97.6006H755.42V86.3922L752.18 88.3267L751.62 87.4293L755.62 84.9562H756.7V97.6006Z" fill="url(#paint37_linear_122_130)"/>
<path d="M756.7 120.393H759.64V121.45H752.02V120.393H755.42V109.185L752.18 111.12L751.62 110.222L755.62 107.749H756.7V120.393Z" fill="url(#paint38_linear_122_130)"/>
<path d="M755.5 130.342C756.927 130.342 758.006 130.947 758.74 132.157C759.486 133.354 759.86 135.096 759.86 137.383C759.86 139.669 759.486 141.418 758.74 142.628C758.006 143.838 756.927 144.443 755.5 144.443C754.087 144.443 753.007 143.838 752.26 142.628C751.514 141.418 751.14 139.669 751.14 137.383C751.14 135.109 751.514 133.367 752.26 132.157C753.007 130.947 754.087 130.342 755.5 130.342ZM752.56 137.383C752.56 139.005 752.707 140.274 753 141.192L757.44 132.357C756.973 131.732 756.327 131.419 755.5 131.419C754.58 131.419 753.86 131.911 753.34 132.895C752.82 133.866 752.56 135.362 752.56 137.383ZM755.5 143.346C756.433 143.346 757.16 142.86 757.68 141.89C758.2 140.906 758.46 139.404 758.46 137.383C758.46 135.667 758.293 134.338 757.96 133.394L753.52 142.309C754 143 754.66 143.346 755.5 143.346Z" fill="url(#paint39_linear_122_130)"/>
<path d="M756.7 165.979H759.64V167.036H752.02V165.979H755.42V154.771L752.18 156.705L751.62 155.808L755.62 153.335H756.7V165.979Z" fill="url(#paint40_linear_122_130)"/>
<path d="M755.5 175.928C756.927 175.928 758.006 176.533 758.74 177.743C759.486 178.94 759.86 180.681 759.86 182.968C759.86 185.255 759.486 187.003 758.74 188.213C758.006 189.423 756.927 190.028 755.5 190.028C754.087 190.028 753.007 189.423 752.26 188.213C751.514 187.003 751.14 185.255 751.14 182.968C751.14 180.695 751.514 178.953 752.26 177.743C753.007 176.533 754.087 175.928 755.5 175.928ZM752.56 182.968C752.56 184.59 752.707 185.86 753 186.777L757.44 177.942C756.973 177.317 756.327 177.005 755.5 177.005C754.58 177.005 753.86 177.497 753.34 178.481C752.82 179.451 752.56 180.947 752.56 182.968ZM755.5 188.931C756.433 188.931 757.16 188.446 757.68 187.475C758.2 186.492 758.46 184.989 758.46 182.968C758.46 181.253 758.293 179.923 757.96 178.979L753.52 187.894C754 188.586 754.66 188.931 755.5 188.931Z" fill="url(#paint41_linear_122_130)"/>
<path d="M792.64 -29.2072C794.067 -29.2072 795.147 -28.6022 795.88 -27.3923C796.627 -26.1957 797 -24.4539 797 -22.1671C797 -19.8802 796.627 -18.1318 795.88 -16.9219C795.147 -15.712 794.067 -15.107 792.64 -15.107C791.227 -15.107 790.147 -15.712 789.401 -16.9219C788.654 -18.1318 788.281 -19.8802 788.281 -22.1671C788.281 -24.4407 788.654 -26.1824 789.401 -27.3923C790.147 -28.6022 791.227 -29.2072 792.64 -29.2072ZM789.7 -22.1671C789.7 -20.545 789.847 -19.2752 790.14 -18.3578L794.58 -27.1929C794.114 -27.8178 793.467 -28.1302 792.64 -28.1302C791.72 -28.1302 791 -27.6383 790.48 -26.6544C789.96 -25.6838 789.7 -24.188 789.7 -22.1671ZM792.64 -16.2039C793.574 -16.2039 794.3 -16.6892 794.82 -17.6598C795.34 -18.6437 795.6 -20.1461 795.6 -22.1671C795.6 -23.8822 795.433 -25.2118 795.1 -26.1558L790.66 -17.241C791.14 -16.5496 791.8 -16.2039 792.64 -16.2039Z" fill="url(#paint42_linear_122_130)"/>
<path d="M793.84 6.42935H796.78V7.48636H789.161V6.42935H792.56V-4.77901L789.321 -2.84447L788.761 -3.74194L792.76 -6.21496H793.84V6.42935Z" fill="url(#paint43_linear_122_130)"/>
<path d="M793.84 29.2221H796.78V30.2792H789.161V29.2221H792.56V18.0138L789.321 19.9483L788.761 19.0509L792.76 16.5778H793.84V29.2221Z" fill="url(#paint44_linear_122_130)"/>
<path d="M792.64 39.1712C794.067 39.1712 795.147 39.7762 795.88 40.9861C796.627 42.1827 797 43.9245 797 46.2113C797 48.4982 796.627 50.2466 795.88 51.4565C795.147 52.6664 794.067 53.2714 792.64 53.2714C791.227 53.2714 790.147 52.6664 789.401 51.4565C788.654 50.2466 788.281 48.4982 788.281 46.2113C788.281 43.9378 788.654 42.196 789.401 40.9861C790.147 39.7762 791.227 39.1712 792.64 39.1712ZM789.7 46.2113C789.7 47.8334 789.847 49.1032 790.14 50.0206L794.58 41.1855C794.114 40.5606 793.467 40.2482 792.64 40.2482C791.72 40.2482 791 40.7401 790.48 41.724C789.96 42.6946 789.7 44.1904 789.7 46.2113ZM792.64 52.1745C793.574 52.1745 794.3 51.6892 794.82 50.7186C795.34 49.7347 795.6 48.2323 795.6 46.2113C795.6 44.4962 795.433 43.1666 795.1 42.2226L790.66 51.1374C791.14 51.8288 791.8 52.1745 792.64 52.1745Z" fill="url(#paint45_linear_122_130)"/>
<path d="M792.64 61.964C794.067 61.964 795.147 62.569 795.88 63.7789C796.627 64.9755 797 66.7173 797 69.0041C797 71.291 796.627 73.0394 795.88 74.2493C795.147 75.4593 794.067 76.0642 792.64 76.0642C791.227 76.0642 790.147 75.4593 789.401 74.2493C788.654 73.0394 788.281 71.291 788.281 69.0041C788.281 66.7306 788.654 64.9888 789.401 63.7789C790.147 62.569 791.227 61.964 792.64 61.964ZM789.7 69.0041C789.7 70.6262 789.847 71.896 790.14 72.8134L794.58 63.9783C794.114 63.3534 793.467 63.041 792.64 63.041C791.72 63.041 791 63.5329 790.48 64.5168C789.96 65.4874 789.7 66.9832 789.7 69.0041ZM792.64 74.9673C793.574 74.9673 794.3 74.482 794.82 73.5114C795.34 72.5275 795.6 71.0251 795.6 69.0041C795.6 67.289 795.433 65.9594 795.1 65.0154L790.66 73.9302C791.14 74.6216 791.8 74.9673 792.64 74.9673Z" fill="url(#paint46_linear_122_130)"/>
</g>
</g>
<defs>
<filter id="filter0_f_122_130" x="-741.19" y="-738.19" width="2141.38" height="1500.38" filterUnits="userSpaceOnUse" color-interpolation-filters="sRGB">
<feFlood flood-opacity="0" result="BackgroundImageFix"/>
<feBlend mode="normal" in="SourceGraphic" in2="BackgroundImageFix" result="shape"/>
<feGaussianBlur stdDeviation="200.095" result="effect1_foregroundBlur_122_130"/>
</filter>
<linearGradient id="paint0_linear_122_130" x1="755.5" y1="-52" x2="755.5" y2="246.818" gradientUnits="userSpaceOnUse">
<stop stop-color="#F7DD43"/>
<stop offset="1" stop-color="#F7DD43" stop-opacity="0"/>
</linearGradient>
<linearGradient id="paint1_linear_122_130" x1="755.5" y1="-52" x2="755.5" y2="246.818" gradientUnits="userSpaceOnUse">
<stop stop-color="#F7DD43"/>
<stop offset="1" stop-color="#F7DD43" stop-opacity="0"/>
</linearGradient>
<linearGradient id="paint2_linear_122_130" x1="755.5" y1="-52" x2="755.5" y2="246.818" gradientUnits="userSpaceOnUse">
<stop stop-color="#F7DD43"/>
<stop offset="1" stop-color="#F7DD43" stop-opacity="0"/>
</linearGradient>
<linearGradient id="paint3_linear_122_130" x1="755.5" y1="-52" x2="755.5" y2="246.818" gradientUnits="userSpaceOnUse">
<stop stop-color="#F7DD43"/>
<stop offset="1" stop-color="#F7DD43" stop-opacity="0"/>
</linearGradient>
<linearGradient id="paint4_linear_122_130" x1="755.5" y1="-52" x2="755.5" y2="246.818" gradientUnits="userSpaceOnUse">
<stop stop-color="#F7DD43"/>
<stop offset="1" stop-color="#F7DD43" stop-opacity="0"/>
</linearGradient>
<linearGradient id="paint5_linear_122_130" x1="755.5" y1="-52" x2="755.5" y2="246.818" gradientUnits="userSpaceOnUse">
<stop stop-color="#F7DD43"/>
<stop offset="1" stop-color="#F7DD43" stop-opacity="0"/>
</linearGradient>
<linearGradient id="paint6_linear_122_130" x1="755.5" y1="-52" x2="755.5" y2="246.818" gradientUnits="userSpaceOnUse">
<stop stop-color="#F7DD43"/>
<stop offset="1" stop-color="#F7DD43" stop-opacity="0"/>
</linearGradient>
<linearGradient id="paint7_linear_122_130" x1="755.5" y1="-52" x2="755.5" y2="246.818" gradientUnits="userSpaceOnUse">
<stop stop-color="#F7DD43"/>
<stop offset="1" stop-color="#F7DD43" stop-opacity="0"/>
</linearGradient>
<linearGradient id="paint8_linear_122_130" x1="755.5" y1="-52" x2="755.5" y2="246.818" gradientUnits="userSpaceOnUse">
<stop stop-color="#F7DD43"/>
<stop offset="1" stop-color="#F7DD43" stop-opacity="0"/>
</linearGradient>
<linearGradient id="paint9_linear_122_130" x1="755.5" y1="-52" x2="755.5" y2="246.818" gradientUnits="userSpaceOnUse">
<stop stop-color="#F7DD43"/>
<stop offset="1" stop-color="#F7DD43" stop-opacity="0"/>
</linearGradient>
<linearGradient id="paint10_linear_122_130" x1="755.5" y1="-52" x2="755.5" y2="246.818" gradientUnits="userSpaceOnUse">
<stop stop-color="#F7DD43"/>
<stop offset="1" stop-color="#F7DD43" stop-opacity="0"/>
</linearGradient>
<linearGradient id="paint11_linear_122_130" x1="755.5" y1="-52" x2="755.5" y2="246.818" gradientUnits="userSpaceOnUse">
<stop stop-color="#F7DD43"/>
<stop offset="1" stop-color="#F7DD43" stop-opacity="0"/>
</linearGradient>
<linearGradient id="paint12_linear_122_130" x1="755.5" y1="-52" x2="755.5" y2="246.818" gradientUnits="userSpaceOnUse">
<stop stop-color="#F7DD43"/>
<stop offset="1" stop-color="#F7DD43" stop-opacity="0"/>
</linearGradient>
<linearGradient id="paint13_linear_122_130" x1="755.5" y1="-52" x2="755.5" y2="246.818" gradientUnits="userSpaceOnUse">
<stop stop-color="#F7DD43"/>
<stop offset="1" stop-color="#F7DD43" stop-opacity="0"/>
</linearGradient>
<linearGradient id="paint14_linear_122_130" x1="755.5" y1="-52" x2="755.5" y2="246.818" gradientUnits="userSpaceOnUse">
<stop stop-color="#F7DD43"/>
<stop offset="1" stop-color="#F7DD43" stop-opacity="0"/>
</linearGradient>
<linearGradient id="paint15_linear_122_130" x1="755.5" y1="-52" x2="755.5" y2="246.818" gradientUnits="userSpaceOnUse">
<stop stop-color="#F7DD43"/>
<stop offset="1" stop-color="#F7DD43" stop-opacity="0"/>
</linearGradient>
<linearGradient id="paint16_linear_122_130" x1="755.5" y1="-52" x2="755.5" y2="246.818" gradientUnits="userSpaceOnUse">
<stop stop-color="#F7DD43"/>
<stop offset="1" stop-color="#F7DD43" stop-opacity="0"/>
</linearGradient>
<linearGradient id="paint17_linear_122_130" x1="755.5" y1="-52" x2="755.5" y2="246.818" gradientUnits="userSpaceOnUse">
<stop stop-color="#F7DD43"/>
<stop offset="1" stop-color="#F7DD43" stop-opacity="0"/>
</linearGradient>
<linearGradient id="paint18_linear_122_130" x1="755.5" y1="-52" x2="755.5" y2="246.818" gradientUnits="userSpaceOnUse">
<stop stop-color="#F7DD43"/>
<stop offset="1" stop-color="#F7DD43" stop-opacity="0"/>
</linearGradient>
<linearGradient id="paint19_linear_122_130" x1="755.5" y1="-52" x2="755.5" y2="246.818" gradientUnits="userSpaceOnUse">
<stop stop-color="#F7DD43"/>
<stop offset="1" stop-color="#F7DD43" stop-opacity="0"/>
</linearGradient>
<linearGradient id="paint20_linear_122_130" x1="755.5" y1="-52" x2="755.5" y2="246.818" gradientUnits="userSpaceOnUse">
<stop stop-color="#F7DD43"/>
<stop offset="1" stop-color="#F7DD43" stop-opacity="0"/>
</linearGradient>
<linearGradient id="paint21_linear_122_130" x1="755.5" y1="-52" x2="755.5" y2="246.818" gradientUnits="userSpaceOnUse">
<stop stop-color="#F7DD43"/>
<stop offset="1" stop-color="#F7DD43" stop-opacity="0"/>
</linearGradient>
<linearGradient id="paint22_linear_122_130" x1="755.5" y1="-52" x2="755.5" y2="246.818" gradientUnits="userSpaceOnUse">
<stop stop-color="#F7DD43"/>
<stop offset="1" stop-color="#F7DD43" stop-opacity="0"/>
</linearGradient>
<linearGradient id="paint23_linear_122_130" x1="755.5" y1="-52" x2="755.5" y2="246.818" gradientUnits="userSpaceOnUse">
<stop stop-color="#F7DD43"/>
<stop offset="1" stop-color="#F7DD43" stop-opacity="0"/>
</linearGradient>
<linearGradient id="paint24_linear_122_130" x1="755.5" y1="-52" x2="755.5" y2="246.818" gradientUnits="userSpaceOnUse">
<stop stop-color="#F7DD43"/>
<stop offset="1" stop-color="#F7DD43" stop-opacity="0"/>
</linearGradient>
<linearGradient id="paint25_linear_122_130" x1="755.5" y1="-52" x2="755.5" y2="246.818" gradientUnits="userSpaceOnUse">
<stop stop-color="#F7DD43"/>
<stop offset="1" stop-color="#F7DD43" stop-opacity="0"/>
</linearGradient>
<linearGradient id="paint26_linear_122_130" x1="755.5" y1="-52" x2="755.5" y2="246.818" gradientUnits="userSpaceOnUse">
<stop stop-color="#F7DD43"/>
<stop offset="1" stop-color="#F7DD43" stop-opacity="0"/>
</linearGradient>
<linearGradient id="paint27_linear_122_130" x1="755.5" y1="-52" x2="755.5" y2="246.818" gradientUnits="userSpaceOnUse">
<stop stop-color="#F7DD43"/>
<stop offset="1" stop-color="#F7DD43" stop-opacity="0"/>
</linearGradient>
<linearGradient id="paint28_linear_122_130" x1="755.5" y1="-52" x2="755.5" y2="246.818" gradientUnits="userSpaceOnUse">
<stop stop-color="#F7DD43"/>
<stop offset="1" stop-color="#F7DD43" stop-opacity="0"/>
</linearGradient>
<linearGradient id="paint29_linear_122_130" x1="755.5" y1="-52" x2="755.5" y2="246.818" gradientUnits="userSpaceOnUse">
<stop stop-color="#F7DD43"/>
<stop offset="1" stop-color="#F7DD43" stop-opacity="0"/>
</linearGradient>
<linearGradient id="paint30_linear_122_130" x1="755.5" y1="-52" x2="755.5" y2="246.818" gradientUnits="userSpaceOnUse">
<stop stop-color="#F7DD43"/>
<stop offset="1" stop-color="#F7DD43" stop-opacity="0"/>
</linearGradient>
<linearGradient id="paint31_linear_122_130" x1="755.5" y1="-52" x2="755.5" y2="246.818" gradientUnits="userSpaceOnUse">
<stop stop-color="#F7DD43"/>
<stop offset="1" stop-color="#F7DD43" stop-opacity="0"/>
</linearGradient>
<linearGradient id="paint32_linear_122_130" x1="755.5" y1="-52" x2="755.5" y2="246.818" gradientUnits="userSpaceOnUse">
<stop stop-color="#F7DD43"/>
<stop offset="1" stop-color="#F7DD43" stop-opacity="0"/>
</linearGradient>
<linearGradient id="paint33_linear_122_130" x1="755.5" y1="-52" x2="755.5" y2="246.818" gradientUnits="userSpaceOnUse">
<stop stop-color="#F7DD43"/>
<stop offset="1" stop-color="#F7DD43" stop-opacity="0"/>
</linearGradient>
<linearGradient id="paint34_linear_122_130" x1="755.5" y1="-52" x2="755.5" y2="246.818" gradientUnits="userSpaceOnUse">
<stop stop-color="#F7DD43"/>
<stop offset="1" stop-color="#F7DD43" stop-opacity="0"/>
</linearGradient>
<linearGradient id="paint35_linear_122_130" x1="755.5" y1="-52" x2="755.5" y2="246.818" gradientUnits="userSpaceOnUse">
<stop stop-color="#F7DD43"/>
<stop offset="1" stop-color="#F7DD43" stop-opacity="0"/>
</linearGradient>
<linearGradient id="paint36_linear_122_130" x1="755.5" y1="-52" x2="755.5" y2="246.818" gradientUnits="userSpaceOnUse">
<stop stop-color="#F7DD43"/>
<stop offset="1" stop-color="#F7DD43" stop-opacity="0"/>
</linearGradient>
<linearGradient id="paint37_linear_122_130" x1="755.5" y1="-52" x2="755.5" y2="246.818" gradientUnits="userSpaceOnUse">
<stop stop-color="#F7DD43"/>
<stop offset="1" stop-color="#F7DD43" stop-opacity="0"/>
</linearGradient>
<linearGradient id="paint38_linear_122_130" x1="755.5" y1="-52" x2="755.5" y2="246.818" gradientUnits="userSpaceOnUse">
<stop stop-color="#F7DD43"/>
<stop offset="1" stop-color="#F7DD43" stop-opacity="0"/>
</linearGradient>
<linearGradient id="paint39_linear_122_130" x1="755.5" y1="-52" x2="755.5" y2="246.818" gradientUnits="userSpaceOnUse">
<stop stop-color="#F7DD43"/>
<stop offset="1" stop-color="#F7DD43" stop-opacity="0"/>
</linearGradient>
<linearGradient id="paint40_linear_122_130" x1="755.5" y1="-52" x2="755.5" y2="246.818" gradientUnits="userSpaceOnUse">
<stop stop-color="#F7DD43"/>
<stop offset="1" stop-color="#F7DD43" stop-opacity="0"/>
</linearGradient>
<linearGradient id="paint41_linear_122_130" x1="755.5" y1="-52" x2="755.5" y2="246.818" gradientUnits="userSpaceOnUse">
<stop stop-color="#F7DD43"/>
<stop offset="1" stop-color="#F7DD43" stop-opacity="0"/>
</linearGradient>
<linearGradient id="paint42_linear_122_130" x1="755.5" y1="-52" x2="755.5" y2="246.818" gradientUnits="userSpaceOnUse">
<stop stop-color="#F7DD43"/>
<stop offset="1" stop-color="#F7DD43" stop-opacity="0"/>
</linearGradient>
<linearGradient id="paint43_linear_122_130" x1="755.5" y1="-52" x2="755.5" y2="246.818" gradientUnits="userSpaceOnUse">
<stop stop-color="#F7DD43"/>
<stop offset="1" stop-color="#F7DD43" stop-opacity="0"/>
</linearGradient>
<linearGradient id="paint44_linear_122_130" x1="755.5" y1="-52" x2="755.5" y2="246.818" gradientUnits="userSpaceOnUse">
<stop stop-color="#F7DD43"/>
<stop offset="1" stop-color="#F7DD43" stop-opacity="0"/>
</linearGradient>
<linearGradient id="paint45_linear_122_130" x1="755.5" y1="-52" x2="755.5" y2="246.818" gradientUnits="userSpaceOnUse">
<stop stop-color="#F7DD43"/>
<stop offset="1" stop-color="#F7DD43" stop-opacity="0"/>
</linearGradient>
<linearGradient id="paint46_linear_122_130" x1="755.5" y1="-52" x2="755.5" y2="246.818" gradientUnits="userSpaceOnUse">
<stop stop-color="#F7DD43"/>
<stop offset="1" stop-color="#F7DD43" stop-opacity="0"/>
</linearGradient>
<clipPath id="clip0_122_130">
<rect width="1024" height="753" fill="white"/>
</clipPath>
</defs>
</svg>
